<svg width="254" height="121" viewBox="0 0 254 121" xmlns="http://www.w3.org/2000/svg"><title>hand</title><g stroke-width="3" stroke="#00F" fill="none" fill-rule="evenodd"><path d="M293.576 87.931s-49.497 5.985-62.142 6.84c-12.646.855-22.992.284-26.44 2.281-3.449 1.994-31.9 16.53-48.28 17.672-16.38 1.139-27.302 4.275-34.2 4.275-6.896 0-21.553-4.275-27.012-5.13-5.459-.855-15.804-1.994-16.956-6.84-1.149-4.846-.862-10.544 0-13.68.862-3.137 4.597-8.55 4.597-8.55M89.757 101.899s12.787-8.55 11.639-19.522M108.148 104.891s.531-5.742-8.787-13.417M77.79 96.413s-8.994-.788-17.398-1c-8.404-.212-10.693-6.017-11.124-12.423-.431-6.402 7.923-6.038 13.078-7.038 5.154-1-.177-.063 11.675-.275M81.998 69.264l-17.416-.498s-17.575-1.546-17.575-5.178c0-3.632-5.702-19.405 13.05-17.695 18.754 1.71 10.305 1.992 21.944 2.42"/><path d="M81.835 48.843L99.2 50.252s17.47 2.463 17.28 6.09c-.19 3.628 4.68 19.678-13.958 16.989-18.638-2.69-10.187-2.53-21.787-3.566"/><path d="M82.798 49.446c0-1 .914-7.115-5.007-9.468-5.925-2.353-16.702-4.487-24.461-7.907-7.76-3.42-15.95-5.985-22.63-8.338C24.02 21.38-.984 17.748 1.82 8.13c2.803-9.617 16.166-5.557 31.684-2.137 15.519 3.42 24.14 4.487 41.814 10.688 17.674 6.2 15.115 5.773 24.047 6.412 8.931.64 21.215 1.067 28.974.855 7.76-.212 15.305 1.498 29.961 1.922 14.657.424 22.874 2.353 27.389 4.703 4.51 2.353 5.59 2.565 31.237.643 25.646-1.922 31.899-2.993 40.734-4.275 8.835-1.283 35.92-8.338 35.92-8.338M128.122 61.142s10.56 7.483 29.099 6.197"/><path d="M147.59 44.684s-8.874 10.67-20.547 16.458c-9.484 4.702-7.973 11.115-21.554 19.022 0 0-16.529 8.273-27.698 2.21-11.17-6.064 9.162-15.675 13.904-19.095 4.742-3.42 13.58-11.543 18.105-15.178 4.524-3.636 8.218-7.34 11.35-11.115 4.003-4.833 8.18-12.44 15.01-12.74" fill="#FFF"/></g></svg>