<svg width="314" height="610" viewBox="0 0 314 610" xmlns="http://www.w3.org/2000/svg"><title>header-hand</title><g stroke="#00F" stroke-width="3" fill="none" fill-rule="evenodd"><path d="M180.328 609.255s-40.13-90.582-49.101-114.116c-8.972-23.534-13.897-43.525-19.696-48.918-5.793-5.395-49.943-51.014-61.63-81.478-11.682-30.467-23.986-49.399-27.994-62.505-4.007-13.107-4.398-43.442-5.944-54.312-1.547-10.87-5.394-31.192 3.147-36.196 8.542-4.998 19.535-7.765 25.996-7.948 6.46-.184 18.919 3.768 18.919 3.768M35.372 230.054s23.677 19.332 43.859 10.775M40.37 266.74s11.22-2.326 20.39-24.492M38.844 204.127s-10.857-34.072-15.337-50.165c-4.48-16.094-8.345-27.459-15.208-49.094-6.863-21.635-11.306-37.746.616-42.287 11.916-4.539 21.231-.221 34.226 43.724 12.995 43.944 25.628 56.212 32.917 78.612M92.879 196.35l-10.177-43.467s-3.695-14.993-5.204-31.55c-1.509-16.558-4.172-35.45-7.678-46.918-3.506-11.468-7.458-38.923-11.215-51.21C54.848 10.917 61.317 4.46 68.219 2.35 75.121.24 87.621.446 96.262 28.71c8.641 28.264 19.632 65.655 27.278 102.285 7.645 36.63 3.205 30.822 9.154 53.187"/><path d="M124.564 192.48s20.491-8.521 21.522-21.14c1.03-12.626-1.176-34.345.815-51.076 1.992-16.732 2.108-33.786 2.698-47.847.59-14.06-7.035-63.688 12.87-63.948 19.904-.26 19.953 27.493 22.47 58.97 2.517 31.476 5.498 48.479 3.983 85.667-1.515 37.187-2.19 32.076 1.785 49.42 3.973 17.345 10.298 40.936 15.208 55.558 4.911 14.622 6.045 29.953 13.755 58.051 7.709 28.098 8.818 44.835 6.975 54.778-1.85 9.939-1.626 12.113 16.926 59.733 18.553 47.62 24.22 58.879 31.79 74.923 7.57 16.044 36.714 63.414 36.714 63.414M135.111 279.28s-8.085 24.413 5.13 58.896"/><path d="M177.695 306.711s-25.433-10.662-43.211-29.483c-14.446-15.289-25.754-8.693-48.67-29.906 0 0-25.325-26.603-20.291-51.352 5.034-24.749 35.109 8.306 44.363 15.33 9.254 7.023 29.824 19.1 39.362 25.586 9.537 6.486 18.721 11.352 27.715 15.109 11.51 4.8 28.39 8.317 32.931 21.125"/></g></svg>