<?xml version="1.0" encoding="UTF-8" standalone="no"?>
<svg width="254px" height="121px" viewBox="0 0 254 121" version="1.1" xmlns="http://www.w3.org/2000/svg" xmlns:xlink="http://www.w3.org/1999/xlink">
    <!-- Generator: Sketch 39.1 (31720) - http://www.bohemiancoding.com/sketch -->
    <title>hand</title>
    <desc>Created with Sketch.</desc>
    <defs></defs>
    <g id="Page-1" stroke="none" stroke-width="1" fill="none" fill-rule="evenodd">
        <g id="Desktop-HD" transform="translate(-1186.000000, -1518.000000)" stroke-width="3" stroke="#0000FF">
            <g id="Work" transform="translate(-53.000000, 39.000000)">
                <g id="Mobile">
                    <g id="Blackmagic" transform="translate(285.000000, 0.000000)">
                        <g id="hand" transform="translate(1101.266510, 1539.557684) rotate(-90.000000) translate(-1101.266510, -1539.557684) translate(1042.766510, 1393.057684)">
                            <g id="Group">
                                <path d="M31.1266429,292.809871 C31.1266429,292.809871 25.1415073,243.312899 24.2864879,230.667083 C23.4314685,218.021267 24.0026214,207.675631 22.0052962,204.227086 C20.011391,200.778541 5.47606145,172.328041 4.33375555,155.947451 C3.19486974,139.56686 0.0586586407,128.645317 0.0586586407,121.748226 C0.0586586407,114.851136 4.33375555,100.194818 5.18877494,94.7357704 C6.04379432,89.2767231 7.18268014,78.931087 12.02893,77.7792728 C16.8751799,76.6309072 22.573029,76.9171365 25.7092401,77.7792728 C28.8454512,78.6414092 34.259434,82.3761838 34.259434,82.3761838" id="Shape"></path>
                                <path d="M17.1590463,88.9904938 C17.1590463,88.9904938 25.7092401,101.7777 36.6808488,100.629334" id="Shape"></path>
                                <path d="M14.1664785,107.381586 C14.1664785,107.381586 19.9087886,107.912662 27.5834426,98.5946927" id="Shape"></path>
                                <path d="M22.6448507,77.0240414 C22.6448507,77.0240414 23.4328058,68.0295317 23.6448507,59.6254266 C23.8568955,51.2213215 29.661951,48.9322004 36.0677563,48.5011323 C42.4701414,48.0700641 42.1056846,56.4245741 43.1056838,61.5790324 C44.105683,66.7334906 43.1687359,61.4021309 43.3807807,73.2547813" id="Shape"></path>
                                <path d="M49.7934261,81.2312668 L50.2914201,63.8157218 C50.2914201,63.8157218 51.8376018,46.2409282 55.4697241,46.2409282 C59.1018465,46.2409282 74.8749373,40.5380406 73.1648986,59.2912303 C71.4548598,78.04442 71.1723307,69.5958747 70.7448211,81.2347153" id="Shape"></path>
                                <path d="M45.7934261,116.231267 L46.2914201,98.8157218 C46.2914201,98.8157218 47.8376018,81.2409282 51.4697241,81.2409282 C55.1018465,81.2409282 70.8749373,75.5380406 69.1648986,94.2912303 C67.4548598,113.04442 67.1723307,104.595875 66.7448211,116.234715" id="Shape-Copy" transform="translate(57.543735, 98.329990) rotate(183.000000) translate(-57.543735, -98.329990) "></path>
                                <path d="M69.6112847,82.0314856 C70.6112847,82.0314856 76.7265367,82.9451938 79.07955,77.0240414 C81.4325633,71.0994405 83.5666917,60.3227362 86.9867692,52.5635091 C90.4068468,44.804282 92.9719049,36.6139868 95.3249183,29.9341544 C97.6779316,23.254322 101.310054,-1.75108049 110.927312,1.0525869 C120.54457,3.85625429 116.484938,17.2193676 113.06486,32.7378218 C109.644783,48.2562759 108.577719,56.8776394 102.377118,74.5514344 C96.1765176,92.2252294 96.6040273,89.6664087 95.9644728,98.5981412 C95.3249183,107.529874 94.8974086,119.813592 95.1094534,127.572819 C95.3214982,135.332047 93.6114594,142.877464 93.1873698,157.533782 C92.7632802,172.190099 90.8343565,180.407983 88.4847632,184.922129 C86.1317499,189.432826 85.9197051,190.512221 87.8417886,216.159053 C89.7638722,241.805885 90.8343565,248.058098 92.1168855,256.893271 C93.3994146,265.728444 100.455035,292.813319 100.455035,292.813319" id="Shape"></path>
                                <path d="M57.9161102,127.355561 C57.9161102,127.355561 50.4329806,137.915007 51.7189297,156.454387" id="Shape"></path>
                                <path d="M74.3735233,146.8226 C74.3735233,146.8226 63.7028814,137.949492 57.9161102,126.276166 C53.2135036,116.792667 46.8008583,118.303129 38.893639,104.722758 C38.893639,104.722758 30.6204715,88.1938799 36.6842689,77.0240414 C42.7480664,65.8542029 52.3584842,86.1868265 55.7785618,90.9285763 C59.1986393,95.6703262 67.3213234,104.508948 70.9568659,109.03344 C74.5924083,113.557931 78.2963522,117.251323 82.0721178,120.382602 C86.9046874,124.386364 94.5109398,128.562552 94.8119066,135.39412" id="Shape" fill="#FFFFFF"></path>
                            </g>
                        </g>
                    </g>
                </g>
            </g>
        </g>
    </g>
</svg>