<?xml version="1.0" encoding="UTF-8" standalone="no"?>
<svg width="314px" height="610px" viewBox="0 0 314 610" version="1.1" xmlns="http://www.w3.org/2000/svg" xmlns:xlink="http://www.w3.org/1999/xlink">
    <!-- Generator: Sketch 39.1 (31720) - http://www.bohemiancoding.com/sketch -->
    <title>header-hand</title>
    <desc>Created with Sketch.</desc>
    <defs></defs>
    <g id="Page-1" stroke="none" stroke-width="1" fill="none" fill-rule="evenodd">
        <g id="Desktop-HD" transform="translate(-899.000000, -169.000000)" stroke="#0000FF" stroke-width="3">
            <g id="Header" transform="translate(221.000000, 30.000000)">
                <g id="header-hand" transform="translate(820.935127, 439.034667) rotate(-17.000000) translate(-820.935127, -439.034667) translate(704.435127, 132.034667)">
                    <g id="Group" transform="translate(0.000000, 0.000000)">
                        <path d="M61.8522786,613.641317 C61.8522786,613.641317 49.9591143,515.285047 48.2600908,490.156333 C46.5610673,465.027618 47.696015,444.46963 43.7270961,437.616967 C39.7649734,430.764304 10.8815743,374.229836 8.61167895,341.679687 C6.34857968,309.129539 0.116561577,287.427156 0.116561577,273.72183 C0.116561577,260.016504 8.61167895,230.892687 10.3107024,220.044922 C12.0097259,209.197157 14.2728252,188.639168 23.9028902,186.350379 C33.5329553,184.068442 44.8552477,184.637213 51.0872658,186.350379 C57.3192839,188.063545 68.0775006,195.484979 68.0775006,195.484979" id="Shape"></path>
                        <path d="M34.0970311,208.628386 C34.0970311,208.628386 51.0872658,234.03806 72.8891351,231.756123" id="Shape"></path>
                        <path d="M28.1504489,245.173637 C28.1504489,245.173637 39.5610906,246.228947 54.8115253,227.713052" id="Shape"></path>
                        <path d="M44.9979657,184.849646 C44.9979657,184.849646 44.5766079,149.092451 44.9979657,132.392512 C45.4193235,115.692573 45.0455384,103.69356 44.8076751,80.9975407 C44.5698118,58.3015215 45.0319462,41.5947295 57.7610301,40.7381466 C70.4833178,39.8815638 78.1289235,46.7342266 77.7075657,92.5579829 C77.2862078,138.381739 85.7813252,153.807083 86.202683,177.359685" id="Shape"></path>
                        <path d="M98.9453591,193.209895 L101.922048,148.667586 C101.922048,148.667586 102.77156,133.249095 106.169607,116.974021 C109.567654,100.698946 112.544343,81.8541236 112.544343,69.8619637 C112.544343,57.8698037 116.791902,30.4591524 116.791902,17.6104096 C116.791902,4.76166681 124.865661,0.478752542 132.083113,0.478752542 C139.300565,0.478752542 151.193729,4.32994905 151.193729,33.8854838 C151.193729,63.4410186 150.772371,102.412112 147.374324,139.676893 C143.976277,176.941673 141.427742,170.08901 140.57823,193.216747" id="Shape"></path>
                        <path d="M130.377293,198.774257 C130.377293,198.774257 152.464599,196.615668 157.140311,184.849646 C161.816024,173.076771 166.056786,151.6622 172.85288,136.243708 C179.648974,120.825217 184.746045,104.550143 189.421757,91.276535 C194.09747,78.0029271 201.314922,28.3142689 220.425538,33.8854838 C239.536154,39.4566987 231.46919,66.0107671 224.673096,96.8477499 C217.877002,127.684733 215.756621,144.81639 203.435303,179.936287 C191.113985,215.056184 191.963496,209.971508 190.692627,227.719905 C189.421757,245.468301 188.572245,269.877486 188.993603,285.295978 C189.414961,300.714469 186.016914,315.708095 185.174199,344.831912 C184.331483,373.955729 180.498486,390.285625 175.829569,399.25576 C171.153857,408.219043 170.732499,410.363927 174.551904,461.32718 C178.371309,512.290434 180.498486,524.714311 183.047021,542.270834 C185.595556,559.827356 199.615898,613.64817 199.615898,613.64817" id="Shape"></path>
                        <path d="M115.086082,284.86426 C115.086082,284.86426 100.216229,305.847113 102.77156,342.687029" id="Shape"></path>
                        <path d="M147.788886,323.547541 C147.788886,323.547541 126.585073,305.91564 115.086082,282.719376 C105.741453,263.874554 92.9987769,266.87602 77.2862078,239.890234 C77.2862078,239.890234 60.8464567,207.045421 72.8959312,184.849646 C84.9454057,162.653871 104.04243,203.057171 110.838523,212.479582 C117.634617,221.901994 133.77534,239.465369 140.999588,248.456062 C148.223836,257.446756 155.584006,264.785958 163.086893,271.008176 C172.689774,278.964117 187.804287,287.262692 188.402343,300.837817" id="Shape"></path>
                    </g>
                </g>
            </g>
        </g>
    </g>
</svg>